<svg width="274" height="34" viewBox="0 0 274 34" fill="none" xmlns="http://www.w3.org/2000/svg">
<path d="M15.1793 33.7865C15.0017 33.7865 14.824 33.7738 14.6463 33.7484C14.4941 33.7484 14.3291 33.7357 14.1514 33.7103C13.9992 32.619 13.885 31.5277 13.8088 30.4364C13.7327 29.3705 13.6819 28.3553 13.6566 27.3909C12.4383 27.9492 11.1821 28.2284 9.88772 28.2284C8.26345 28.2284 6.728 27.7843 5.28138 26.896C3.86014 26.0077 2.70538 24.6499 1.8171 22.8226C0.928828 20.9953 0.48469 18.6985 0.48469 15.9321C0.48469 13.2419 0.903448 10.9197 1.74097 8.96552C2.57848 7.01131 3.66979 5.39972 5.0149 4.13076C6.36 2.86179 7.81931 1.92276 9.39283 1.31365C10.9663 0.70455 12.4891 0.399999 13.9611 0.399999C15.2808 0.399999 16.4863 0.628413 17.5777 1.08524C18.669 1.51669 19.5319 2.13848 20.1663 2.95062C20.8262 3.73738 21.1561 4.6891 21.1561 5.80579C21.1561 6.71945 20.9023 7.58234 20.3948 8.39448C19.8872 9.20662 19.1131 9.86648 18.0726 10.3741C17.032 10.8563 15.7123 11.0974 14.1134 11.0974C14.3672 10.3614 14.5448 9.70152 14.6463 9.11779C14.7479 8.53407 14.7986 8.02648 14.7986 7.59503C14.7986 6.63062 14.5956 5.98345 14.1895 5.65352C13.7834 5.29821 13.3139 5.12055 12.781 5.12055C11.7404 5.12055 10.8014 5.59007 9.96386 6.5291C9.12635 7.46814 8.46648 8.69903 7.98428 10.2218C7.50207 11.7192 7.26097 13.3308 7.26097 15.0566C7.26097 17.5183 7.74317 19.4472 8.70759 20.843C9.672 22.2389 10.8775 22.9368 12.3241 22.9368C12.8825 22.9368 13.4662 22.8226 14.0753 22.5942V22.5561C14.0753 20.6527 14.2403 19.1426 14.5702 18.0259C14.9255 16.8839 15.3697 16.0717 15.9026 15.5895C16.461 15.1073 17.032 14.8662 17.6157 14.8662C18.2502 14.8662 18.8466 15.0819 19.405 15.5134C19.9887 15.9448 20.4709 16.5032 20.8516 17.1884C21.2323 17.8483 21.4226 18.5716 21.4226 19.3583C21.4226 20.069 21.2196 20.7923 20.8135 21.5283C20.4328 22.2389 19.773 22.8861 18.8339 23.4698C18.7832 23.6728 18.7451 23.8759 18.7197 24.0789C18.6943 24.2819 18.6817 24.485 18.6817 24.688C18.6817 25.3732 18.8212 26.1473 19.1004 27.0102C19.405 27.8731 19.8745 29.0786 20.509 30.6268C20.3567 31.2105 20.0014 31.7434 19.443 32.2257C18.9101 32.7079 18.2629 33.0886 17.5015 33.3677C16.7655 33.6469 15.9914 33.7865 15.1793 33.7865ZM31.9368 28.2665C30.0333 28.2665 28.4598 27.8858 27.2162 27.1244C25.9727 26.363 25.0463 25.3606 24.4372 24.117C23.8535 22.848 23.5616 21.5029 23.5616 20.0817C23.5616 18.7366 23.8027 17.3914 24.2849 16.0463C24.7925 14.7012 25.5158 13.483 26.4549 12.3917C27.4193 11.275 28.5867 10.3868 29.9572 9.7269C31.3277 9.04165 32.9012 8.69903 34.6778 8.69903C36.5812 8.69903 38.142 9.09241 39.3602 9.87917C40.6038 10.6406 41.5175 11.6557 42.1012 12.9247C42.7103 14.1937 43.0149 15.5514 43.0149 16.9981C43.0149 18.3178 42.7738 19.6502 42.2916 20.9953C41.8093 22.315 41.086 23.5332 40.1216 24.6499C39.1826 25.7412 38.0278 26.6168 36.6573 27.2767C35.2869 27.9366 33.7133 28.2665 31.9368 28.2665ZM32.9647 25.0306C33.6499 25.0306 34.2209 24.6753 34.6778 23.9647C35.1346 23.2541 35.4772 22.3531 35.7056 21.2618C35.934 20.1451 36.0482 19.0157 36.0482 17.8737C36.0482 16.8585 35.9467 15.9068 35.7437 15.0185C35.566 14.1048 35.2869 13.3688 34.9062 12.8105C34.5255 12.2268 34.0306 11.9349 33.4215 11.9349C32.7616 11.9349 32.1906 12.2902 31.7084 13.0008C31.2516 13.7114 30.9089 14.6124 30.6805 15.7037C30.4521 16.795 30.3379 17.9244 30.3379 19.0919C30.3379 20.107 30.4267 21.0714 30.6044 21.9851C30.8074 22.8734 31.0993 23.6094 31.48 24.1931C31.8607 24.7514 32.3556 25.0306 32.9647 25.0306ZM53.5365 28.2665C51.633 28.2665 50.0595 27.8858 48.8159 27.1244C47.5723 26.363 46.646 25.3606 46.0369 24.117C45.4532 22.848 45.1613 21.5029 45.1613 20.0817C45.1613 18.7366 45.4024 17.3914 45.8846 16.0463C46.3922 14.7012 47.1155 13.483 48.0545 12.3917C49.019 11.275 50.1864 10.3868 51.5569 9.7269C52.9274 9.04165 54.5009 8.69903 56.2774 8.69903C58.1809 8.69903 59.7417 9.09241 60.9599 9.87917C62.2035 10.6406 63.1172 11.6557 63.7009 12.9247C64.31 14.1937 64.6145 15.5514 64.6145 16.9981C64.6145 18.3178 64.3734 19.6502 63.8912 20.9953C63.409 22.315 62.6857 23.5332 61.7213 24.6499C60.7823 25.7412 59.6275 26.6168 58.257 27.2767C56.8865 27.9366 55.313 28.2665 53.5365 28.2665ZM54.5643 25.0306C55.2496 25.0306 55.8206 24.6753 56.2774 23.9647C56.7343 23.2541 57.0769 22.3531 57.3053 21.2618C57.5337 20.1451 57.6479 19.0157 57.6479 17.8737C57.6479 16.8585 57.5464 15.9068 57.3434 15.0185C57.1657 14.1048 56.8865 13.3688 56.5059 12.8105C56.1252 12.2268 55.6303 11.9349 55.0212 11.9349C54.3613 11.9349 53.7903 12.2902 53.3081 13.0008C52.8512 13.7114 52.5086 14.6124 52.2802 15.7037C52.0518 16.795 51.9376 17.9244 51.9376 19.0919C51.9376 20.107 52.0264 21.0714 52.2041 21.9851C52.4071 22.8734 52.699 23.6094 53.0796 24.1931C53.4603 24.7514 53.9552 25.0306 54.5643 25.0306ZM72.1694 28.1523C71.2558 28.1523 70.3929 27.835 69.5808 27.2006C68.794 26.5661 68.1468 25.6397 67.6392 24.4215C67.157 23.2033 66.9159 21.7313 66.9159 20.0055C66.9159 18.229 67.1697 16.6428 67.6773 15.2469C68.1849 13.851 68.8448 12.6709 69.6569 11.7065C70.4944 10.7167 71.3954 9.968 72.3598 9.46041C73.3496 8.95283 74.314 8.69903 75.253 8.69903C76.2936 8.69903 77.2199 9.02896 78.0321 9.68883C78.8442 10.3233 79.4025 11.3258 79.7071 12.6963C79.9355 11.4273 80.1259 10.2218 80.2781 9.07972C80.4558 7.91227 80.5446 6.88441 80.5446 5.99614C80.5446 4.82869 80.3923 3.97848 80.0878 3.44552V3.2171C80.6715 2.55724 81.306 2.07503 81.9912 1.77048C82.7019 1.44055 83.3744 1.27559 84.0089 1.27559C84.8464 1.27559 85.557 1.54207 86.1408 2.07503C86.7245 2.58262 87.0163 3.31862 87.0163 4.28303C87.0163 4.816 86.9275 5.60276 86.7499 6.64331C86.5722 7.68386 86.3565 8.87669 86.1027 10.2218C85.8489 11.5415 85.5824 12.912 85.3032 14.3332C85.0494 15.7291 84.8337 17.0742 84.6561 18.3686C84.4784 19.6375 84.3896 20.7415 84.3896 21.6806C84.3896 22.4673 84.4657 23.1018 84.618 23.584C84.7957 24.0408 85.0748 24.2692 85.4555 24.2692C85.7347 24.2692 86.0139 24.1804 86.293 24.0028C86.5976 23.7997 86.8006 23.5713 86.9021 23.3175L87.1686 23.5079C87.1686 24.3454 86.9021 25.1194 86.3692 25.8301C85.8362 26.5153 85.1637 27.0737 84.3515 27.5051C83.5394 27.9366 82.7019 28.1523 81.839 28.1523C80.8999 28.1523 80.1512 27.8985 79.5929 27.3909C79.0599 26.8579 78.6792 26.1854 78.4508 25.3732C78.2224 24.5611 78.0955 23.7236 78.0701 22.8607C77.2834 24.688 76.357 26.0331 75.2911 26.896C74.2505 27.7335 73.21 28.1523 72.1694 28.1523ZM74.7201 23.3175C75.3799 23.3175 76.1159 22.7211 76.9281 21.5283C77.7402 20.3354 78.4508 18.597 79.0599 16.3128L79.2883 15.1327C78.8823 14.1937 78.4381 13.5338 77.9559 13.1531C77.4991 12.747 77.055 12.544 76.6235 12.544C75.989 12.544 75.3926 12.8993 74.8343 13.6099C74.2759 14.2952 73.8191 15.1834 73.4638 16.2748C73.1339 17.3407 72.9689 18.4701 72.9689 19.6629C72.9689 20.805 73.1339 21.7059 73.4638 22.3658C73.7937 23.0003 74.2125 23.3175 74.7201 23.3175ZM106.087 28.2665C105.173 28.2665 104.132 28.1015 102.965 27.7716C101.823 27.4417 100.617 27.0863 99.3483 26.7057C98.1047 26.2996 96.8611 26.0077 95.6175 25.8301C94.7546 26.6422 93.9425 27.2259 93.1811 27.5812C92.4451 27.9112 91.7853 28.0761 91.2015 28.0761C90.4655 28.0761 89.8437 27.8604 89.3362 27.429C88.8286 26.9975 88.4479 26.4519 88.1941 25.792C87.9403 25.1068 87.8134 24.4088 87.8134 23.6982C87.8134 22.9622 87.9403 22.2643 88.1941 21.6044C88.4733 20.9446 88.892 20.4116 89.4504 20.0055C90.0087 19.5741 90.7193 19.3583 91.5822 19.3583C91.7599 19.3583 91.9502 19.371 92.1533 19.3964C92.3563 19.4218 92.572 19.4599 92.8004 19.5106C93.2826 18.0386 93.7014 16.4143 94.0567 14.6378C94.4374 12.8359 94.7293 11.072 94.9323 9.34621C95.1607 7.62041 95.2749 6.12303 95.2749 4.85407C95.2749 4.34648 95.2495 3.99117 95.1988 3.78814C95.148 3.55972 95.0592 3.33131 94.9323 3.10289L94.8942 2.98869C95.1988 2.17655 95.7064 1.54207 96.417 1.08524C97.1276 0.628413 97.8763 0.399999 98.6631 0.399999C99.526 0.399999 100.237 0.71724 100.795 1.35172C101.353 1.96083 101.632 2.98869 101.632 4.43531C101.632 5.34896 101.518 6.49103 101.29 7.86152C101.087 9.20662 100.795 10.6659 100.414 12.2394C100.034 13.7876 99.6148 15.323 99.158 16.8458C98.7011 18.3686 98.2443 19.7263 97.7875 20.9192C98.9042 21.173 100.021 21.4648 101.138 21.7948C102.28 22.1247 103.396 22.2897 104.488 22.2897C105.325 22.2897 106.125 22.1374 106.886 21.8328C107.673 21.5283 108.409 20.9699 109.094 20.1578C109.602 20.4877 109.97 20.9572 110.198 21.5663C110.452 22.1754 110.579 22.8226 110.579 23.5079C110.579 24.2692 110.414 25.0179 110.084 25.7539C109.779 26.4646 109.297 27.061 108.637 27.5432C107.977 28.0254 107.127 28.2665 106.087 28.2665ZM116.735 28.1523C115.593 28.1523 114.629 27.6828 113.842 26.7437C113.081 25.8047 112.7 24.5484 112.7 22.9749C112.7 22.112 112.802 21.1857 113.005 20.1959C113.208 19.2061 113.411 18.267 113.614 17.3788C113.791 16.7189 113.931 16.1098 114.033 15.5514C114.159 14.9677 114.223 14.4982 114.223 14.1429C114.223 13.6861 114.121 13.3561 113.918 13.1531C113.741 12.9501 113.525 12.8486 113.271 12.8486C113.017 12.8486 112.764 12.9374 112.51 13.115C112.256 13.2673 112.053 13.5084 111.901 13.8383L111.596 13.7241C111.596 12.6836 111.85 11.7953 112.357 11.0593C112.865 10.3233 113.512 9.76496 114.299 9.38427C115.086 9.00359 115.885 8.81324 116.697 8.81324C117.357 8.81324 117.992 8.95283 118.601 9.232C119.21 9.48579 119.705 9.89186 120.085 10.4502C120.492 11.0086 120.695 11.7065 120.695 12.544C120.695 13.0516 120.618 13.6607 120.466 14.3713C120.339 15.0819 120.187 15.8179 120.009 16.5793C119.832 17.3661 119.654 18.1655 119.476 18.9777C119.324 19.7644 119.248 20.4623 119.248 21.0714C119.248 21.6298 119.337 22.0866 119.514 22.4419C119.692 22.7972 119.959 22.9749 120.314 22.9749C120.974 22.9749 121.71 22.3658 122.522 21.1476C123.359 19.9294 124.032 18.2924 124.54 16.2367C124.641 15.8306 124.73 15.3992 124.806 14.9423C124.882 14.4855 124.92 14.016 124.92 13.5338C124.92 13.1531 124.895 12.7724 124.844 12.3917C124.793 11.9857 124.717 11.5796 124.616 11.1735V10.907C125.022 10.2218 125.542 9.70152 126.177 9.34621C126.836 8.9909 127.496 8.81324 128.156 8.81324C129.044 8.81324 129.844 9.11779 130.554 9.7269C131.265 10.336 131.62 11.2243 131.62 12.3917C131.62 13.077 131.493 13.8764 131.24 14.7901C130.986 15.6783 130.707 16.6047 130.402 17.5691C130.098 18.5081 129.818 19.4345 129.565 20.3481C129.311 21.2618 129.184 22.0739 129.184 22.7846C129.184 23.8251 129.552 24.3454 130.288 24.3454C130.491 24.3454 130.732 24.2946 131.011 24.1931C131.316 24.0662 131.595 23.8251 131.849 23.4698L132.115 23.5459C132.115 24.4596 131.861 25.2717 131.354 25.9823C130.872 26.6676 130.25 27.2006 129.489 27.5812C128.727 27.9619 127.94 28.1523 127.128 28.1523C126.088 28.1523 125.149 27.7716 124.311 27.0102C123.499 26.2488 123.093 25.0052 123.093 23.2794V23.2033C122.052 24.9799 120.974 26.2488 119.857 27.0102C118.74 27.7716 117.7 28.1523 116.735 28.1523ZM141.623 28.2665C139.948 28.2665 138.527 27.8858 137.359 27.1244C136.217 26.363 135.354 25.3732 134.771 24.155C134.187 22.9114 133.895 21.579 133.895 20.1578C133.895 18.8127 134.149 17.4676 134.656 16.1225C135.189 14.7774 135.963 13.5465 136.979 12.4298C137.994 11.2877 139.225 10.3868 140.671 9.7269C142.143 9.04165 143.831 8.69903 145.734 8.69903C147.613 8.69903 149.008 9.07972 149.922 9.8411C150.836 10.5771 151.293 11.3892 151.293 12.2775C151.293 13.2166 150.823 14.0794 149.884 14.8662C148.945 15.653 147.574 16.0463 145.773 16.0463C145.874 15.6657 145.95 15.285 146.001 14.9043C146.077 14.4982 146.115 14.1175 146.115 13.7622C146.115 13.2292 146.001 12.7851 145.773 12.4298C145.544 12.0491 145.138 11.8588 144.554 11.8588C144.021 11.8588 143.45 12.0999 142.841 12.5821C142.257 13.0643 141.75 13.7749 141.318 14.7139C140.912 15.653 140.709 16.8077 140.709 18.1782C140.709 19.5233 140.925 20.6146 141.357 21.4521C141.813 22.2897 142.397 22.8988 143.108 23.2794C143.818 23.6348 144.567 23.8124 145.354 23.8124C146.394 23.8124 147.397 23.5459 148.361 23.013C149.326 22.4546 150.024 21.6932 150.455 20.7288L150.836 20.8811C150.836 22.2008 150.531 23.3302 149.922 24.2692C149.338 25.1829 148.577 25.9443 147.638 26.5534C146.699 27.1371 145.696 27.5686 144.63 27.8477C143.565 28.1269 142.562 28.2665 141.623 28.2665ZM166.987 28.1903C166.149 28.1903 165.362 28 164.626 27.6193C163.89 27.2132 163.294 26.6295 162.837 25.8681C162.38 25.1068 162.152 24.1931 162.152 23.1272C162.152 22.0359 162.418 20.805 162.951 19.4345C163.358 19.2314 163.84 18.9142 164.398 18.4828C164.956 18.0513 165.451 17.5691 165.883 17.0361C166.314 16.4778 166.53 15.9321 166.53 15.3992C166.53 14.917 166.34 14.5363 165.959 14.2571C165.604 13.9779 165.159 13.8383 164.626 13.8383C163.967 13.8383 163.345 14.0414 162.761 14.4474C162.177 14.8535 161.657 15.3865 161.2 16.0463C160.769 16.6808 160.426 17.3788 160.172 18.1401C159.944 18.8761 159.83 19.5868 159.83 20.272C159.83 20.9319 159.906 21.5537 160.058 22.1374C160.236 22.6957 160.325 23.3429 160.325 24.0789C160.325 25.221 160.02 26.1854 159.411 26.9721C158.802 27.7589 157.901 28.1523 156.708 28.1523C155.617 28.1523 154.741 27.7843 154.081 27.0483C153.422 26.3123 153.092 25.3098 153.092 24.0408C153.092 23.381 153.168 22.5054 153.32 21.4141C153.498 20.3228 153.713 19.1172 153.967 17.7975C154.221 16.4778 154.462 15.12 154.69 13.7241C154.944 12.3029 155.147 10.9451 155.3 9.65076C155.477 8.33103 155.566 7.15089 155.566 6.11034C155.566 5.552 155.528 5.04441 155.452 4.58759C155.401 4.10538 155.274 3.72469 155.071 3.44552V3.2171C155.63 2.58262 156.239 2.1131 156.898 1.80855C157.558 1.504 158.206 1.35172 158.84 1.35172C159.804 1.35172 160.629 1.69434 161.314 2.37958C162 3.06483 162.342 4.08 162.342 5.4251C162.342 6.13572 162.241 6.99862 162.038 8.01379C161.86 9.02896 161.632 10.0949 161.353 11.2116C161.099 12.3283 160.832 13.3942 160.553 14.4094C161.111 13.5972 161.746 12.7597 162.457 11.8968C163.167 11.0339 163.967 10.3106 164.855 9.7269C165.743 9.11779 166.746 8.81324 167.862 8.81324C169.157 8.81324 170.172 9.232 170.908 10.0695C171.644 10.8817 172.012 11.8588 172.012 13.0008C172.012 14.1429 171.593 15.3611 170.756 16.6554C169.943 17.9498 168.573 19.0411 166.644 19.9294C166.974 20.6654 167.431 21.3252 168.015 21.909C168.598 22.4927 169.233 22.9495 169.918 23.2794C170.629 23.584 171.289 23.7363 171.898 23.7363C172.202 23.7363 172.469 23.6855 172.697 23.584L172.926 23.8124C172.291 25.2844 171.415 26.3884 170.299 27.1244C169.207 27.835 168.103 28.1903 166.987 28.1903ZM183.458 28.2284C181.859 28.2284 180.476 27.9112 179.308 27.2767C178.166 26.6168 177.215 25.7286 176.453 24.6119C175.717 23.4698 175.171 22.1881 174.816 20.7669C174.486 19.3203 174.347 17.8229 174.397 16.2748C174.499 13.5084 175.007 11.1228 175.92 9.11779C176.834 7.11283 177.989 5.46317 179.384 4.16883C180.78 2.87448 182.278 1.92276 183.877 1.31365C185.501 0.679171 187.062 0.36193 188.559 0.36193C189.828 0.36193 190.97 0.577654 191.985 1.0091C193.026 1.41517 193.851 2.02427 194.46 2.83641C195.069 3.62317 195.373 4.58758 195.373 5.72965C195.373 6.61793 195.107 7.48083 194.574 8.31834C194.066 9.13048 193.28 9.80303 192.214 10.336C191.173 10.8436 189.828 11.0974 188.178 11.0974C188.458 10.2852 188.661 9.57462 188.787 8.96552C188.914 8.35641 188.978 7.83614 188.978 7.40469C188.978 6.51641 188.775 5.92 188.369 5.61545C187.963 5.28552 187.455 5.12055 186.846 5.12055C186.11 5.12055 185.412 5.38703 184.752 5.92C184.092 6.45296 183.496 7.17628 182.963 8.08993C182.455 8.97821 182.049 9.968 181.745 11.0593C181.44 12.1506 181.263 13.2546 181.212 14.3713C181.11 17.1884 181.516 19.3203 182.43 20.7669C183.344 22.2135 184.524 22.9368 185.97 22.9368C187.087 22.9368 188.318 22.48 189.663 21.5663C191.034 20.6527 192.379 19.2695 193.698 17.4168L194.193 17.6452C193.863 19.9294 193.14 21.8582 192.023 23.4317C190.907 25.0052 189.587 26.1981 188.064 27.0102C186.567 27.8223 185.031 28.2284 183.458 28.2284ZM210.069 28.1903C209.181 28.1903 208.407 27.8985 207.747 27.3148C207.087 26.731 206.757 25.7793 206.757 24.4596C206.757 24.3327 206.757 24.2058 206.757 24.0789C206.757 23.952 206.77 23.8251 206.795 23.6982C206.034 25.221 205.171 26.3503 204.207 27.0863C203.268 27.797 202.316 28.1523 201.351 28.1523C200.463 28.1523 199.626 27.8477 198.839 27.2386C198.052 26.6041 197.418 25.6778 196.935 24.4596C196.453 23.2414 196.212 21.7694 196.212 20.0436C196.212 18.267 196.453 16.6808 196.935 15.285C197.443 13.8891 198.103 12.709 198.915 11.7446C199.727 10.7801 200.615 10.0568 201.58 9.57462C202.544 9.06703 203.483 8.81324 204.397 8.81324C205.412 8.81324 206.326 9.13048 207.138 9.76496C207.95 10.3741 208.508 11.3512 208.813 12.6963C208.889 12.2648 208.94 11.8714 208.965 11.5161C209.016 11.1608 209.041 10.9197 209.041 10.7928C209.067 10.1076 209.409 9.6 210.069 9.27007C210.754 8.94014 211.503 8.77517 212.315 8.77517C213.026 8.77517 213.698 8.91476 214.333 9.19393C214.967 9.4731 215.399 9.94262 215.627 10.6025L215.703 10.8309C215.399 11.5161 215.094 12.341 214.79 13.3054C214.485 14.2698 214.206 15.285 213.952 16.3509C213.698 17.3914 213.495 18.4193 213.343 19.4345C213.191 20.4243 213.115 21.2999 213.115 22.0612C213.115 22.8988 213.204 23.4825 213.381 23.8124C213.559 24.117 213.775 24.2692 214.028 24.2692C214.46 24.2692 214.853 23.9647 215.209 23.3556L215.513 23.5079C215.513 24.3708 215.234 25.1575 214.676 25.8681C214.117 26.5788 213.419 27.1498 212.582 27.5812C211.744 27.9873 210.907 28.1903 210.069 28.1903ZM203.864 23.3556C204.524 23.3556 205.247 22.7719 206.034 21.6044C206.846 20.4116 207.544 18.7112 208.128 16.5032C208.178 16.2748 208.229 16.059 208.28 15.856C208.331 15.6276 208.369 15.4119 208.394 15.2088C207.988 14.2698 207.557 13.6099 207.1 13.2292C206.668 12.8232 206.237 12.6201 205.805 12.6201C205.171 12.6201 204.575 12.9628 204.016 13.648C203.483 14.3079 203.039 15.1454 202.684 16.1606C202.354 17.1757 202.189 18.1909 202.189 19.2061C202.189 20.6019 202.341 21.6425 202.646 22.3277C202.976 23.013 203.382 23.3556 203.864 23.3556ZM222.154 28.1523C221.241 28.1523 220.429 27.7843 219.718 27.0483C219.007 26.2869 218.652 25.221 218.652 23.8505C218.652 23.1906 218.728 22.4419 218.88 21.6044C219.033 20.7669 219.21 19.9167 219.413 19.0538C219.616 18.1655 219.794 17.3407 219.946 16.5793C220.099 15.7926 220.175 15.1454 220.175 14.6378C220.175 14.1048 220.073 13.6861 219.87 13.3815C219.693 13.0516 219.451 12.8866 219.147 12.8866C218.665 12.8866 218.17 13.2166 217.662 13.8764L217.434 13.7241C217.408 13.3181 217.497 12.8359 217.7 12.2775C217.903 11.7192 218.221 11.1862 218.652 10.6786C219.083 10.1457 219.629 9.70152 220.289 9.34621C220.974 8.9909 221.774 8.81324 222.687 8.81324C224.032 8.81324 225.01 9.20662 225.619 9.99338C226.228 10.7548 226.532 11.6811 226.532 12.7724C226.532 12.9501 226.52 13.1404 226.494 13.3434C226.494 13.5211 226.482 13.6988 226.456 13.8764C227.37 12.2268 228.322 10.9705 229.311 10.1076C230.326 9.21931 231.266 8.77517 232.128 8.77517C232.941 8.77517 233.537 9.09241 233.918 9.7269C234.298 10.3614 234.489 11.1228 234.489 12.011C234.489 12.8232 234.324 13.648 233.994 14.4855C233.689 15.323 233.22 16.021 232.585 16.5793C231.976 17.1123 231.227 17.3661 230.339 17.3407L230.187 17.2646C230.162 16.6047 229.946 16.0844 229.54 15.7037C229.134 15.323 228.677 15.1327 228.169 15.1327C227.484 15.1327 226.837 15.4753 226.228 16.1606C225.644 16.8458 225.352 17.8356 225.352 19.1299C225.352 19.9167 225.441 20.7669 225.619 21.6806C225.796 22.5942 225.885 23.3683 225.885 24.0028C225.885 24.7641 225.707 25.4621 225.352 26.0966C224.997 26.731 224.54 27.2386 223.982 27.6193C223.423 27.9746 222.814 28.1523 222.154 28.1523ZM240.431 28.1523C239.518 28.1523 238.655 27.835 237.843 27.2006C237.056 26.5661 236.409 25.6397 235.901 24.4215C235.419 23.2033 235.178 21.7313 235.178 20.0055C235.178 18.229 235.432 16.6428 235.939 15.2469C236.447 13.851 237.107 12.6709 237.919 11.7065C238.756 10.7167 239.657 9.968 240.622 9.46041C241.611 8.95283 242.576 8.69903 243.515 8.69903C244.555 8.69903 245.482 9.02896 246.294 9.68883C247.106 10.3233 247.664 11.3258 247.969 12.6963C248.197 11.4273 248.388 10.2218 248.54 9.07972C248.718 7.91227 248.806 6.88441 248.806 5.99614C248.806 4.82869 248.654 3.97848 248.35 3.44552V3.2171C248.933 2.55724 249.568 2.07503 250.253 1.77048C250.964 1.44055 251.636 1.27559 252.271 1.27559C253.108 1.27559 253.819 1.54207 254.403 2.07503C254.986 2.58262 255.278 3.31862 255.278 4.28303C255.278 4.816 255.189 5.60276 255.012 6.64331C254.834 7.68386 254.618 8.87669 254.365 10.2218C254.111 11.5415 253.844 12.912 253.565 14.3332C253.311 15.7291 253.096 17.0742 252.918 18.3686C252.74 19.6375 252.651 20.7415 252.651 21.6806C252.651 22.4673 252.728 23.1018 252.88 23.584C253.058 24.0408 253.337 24.2692 253.717 24.2692C253.997 24.2692 254.276 24.1804 254.555 24.0028C254.859 23.7997 255.062 23.5713 255.164 23.3175L255.43 23.5079C255.43 24.3454 255.164 25.1194 254.631 25.8301C254.098 26.5153 253.426 27.0737 252.613 27.5051C251.801 27.9366 250.964 28.1523 250.101 28.1523C249.162 28.1523 248.413 27.8985 247.855 27.3909C247.322 26.8579 246.941 26.1854 246.713 25.3732C246.484 24.5611 246.357 23.7236 246.332 22.8607C245.545 24.688 244.619 26.0331 243.553 26.896C242.512 27.7335 241.472 28.1523 240.431 28.1523ZM242.982 23.3175C243.642 23.3175 244.378 22.7211 245.19 21.5283C246.002 20.3354 246.713 18.597 247.322 16.3128L247.55 15.1327C247.144 14.1937 246.7 13.5338 246.218 13.1531C245.761 12.747 245.317 12.544 244.885 12.544C244.251 12.544 243.654 12.8993 243.096 13.6099C242.538 14.2952 242.081 15.1834 241.726 16.2748C241.396 17.3407 241.231 18.4701 241.231 19.6629C241.231 20.805 241.396 21.7059 241.726 22.3658C242.056 23.0003 242.474 23.3175 242.982 23.3175ZM263.616 28.3426C262.043 28.3426 260.736 28.1269 259.695 27.6954C258.655 27.264 257.881 26.7183 257.373 26.0585C256.866 25.3732 256.612 24.688 256.612 24.0028C256.612 23.0383 257.043 22.1881 257.906 21.4521C258.769 20.6908 259.936 20.3101 261.408 20.3101C261.408 21.6044 261.573 22.645 261.903 23.4317C262.233 24.1931 262.652 24.7388 263.16 25.0687C263.693 25.3986 264.2 25.5636 264.682 25.5636C265.266 25.5636 265.748 25.3986 266.129 25.0687C266.535 24.7134 266.738 24.2819 266.738 23.7743C266.738 23.0637 266.37 22.4419 265.634 21.909C264.898 21.376 263.946 20.7796 262.779 20.1197C262.195 19.7644 261.561 19.3583 260.876 18.9015C260.19 18.4193 259.607 17.8483 259.124 17.1884C258.642 16.5032 258.401 15.691 258.401 14.752C258.401 13.7622 258.68 12.8866 259.239 12.1252C259.822 11.3639 260.584 10.7294 261.523 10.2218C262.462 9.68883 263.477 9.29545 264.568 9.04165C265.66 8.76248 266.725 8.6229 267.766 8.6229C269.72 8.6229 271.192 9.01628 272.182 9.80303C273.172 10.5898 273.667 11.4273 273.667 12.3156C273.667 13.077 273.286 13.7622 272.525 14.3713C271.763 14.9804 270.596 15.285 269.022 15.285C269.048 13.9906 268.781 13.0516 268.223 12.4679C267.664 11.8588 267.068 11.5542 266.434 11.5542C265.977 11.5542 265.596 11.6938 265.292 11.973C264.987 12.2521 264.835 12.6582 264.835 13.1912C264.835 13.8003 265.025 14.3332 265.406 14.7901C265.812 15.2215 266.307 15.6149 266.89 15.9702C267.5 16.3001 268.121 16.6174 268.756 16.9219C269.619 17.328 270.431 17.7594 271.192 18.2163C271.954 18.6731 272.575 19.1934 273.058 19.7771C273.54 20.3608 273.781 21.0714 273.781 21.909C273.781 23.051 273.311 24.117 272.372 25.1068C271.459 26.0712 270.228 26.8579 268.68 27.467C267.132 28.0508 265.444 28.3426 263.616 28.3426Z" fill="#3B989C"/>
</svg>
